<?xml version="1.0" encoding="UTF-8" standalone="no"?>
<!-- Created with Inkscape (http://www.inkscape.org/) -->
<svg
   xmlns:dc="http://purl.org/dc/elements/1.1/"
   xmlns:cc="http://web.resource.org/cc/"
   xmlns:rdf="http://www.w3.org/1999/02/22-rdf-syntax-ns#"
   xmlns:svg="http://www.w3.org/2000/svg"
   xmlns="http://www.w3.org/2000/svg"
   xmlns:sodipodi="http://sodipodi.sourceforge.net/DTD/sodipodi-0.dtd"
   xmlns:inkscape="http://www.inkscape.org/namespaces/inkscape"
   width="1000"
   height="1000"
   id="svg2"
   inkscape:label="Pozadí"
   sodipodi:version="0.32"
   inkscape:version="0.44.1"
   sodipodi:docbase="F:\zzz-netestlé-zzz\svgImages"
   sodipodi:docname="BLACK_KING_L.svg">
  <defs
     id="defs3" />
  <sodipodi:namedview
     id="base"
     pagecolor="#ffffff"
     bordercolor="#666666"
     borderopacity="1.0"
     inkscape:pageopacity="0.0"
     inkscape:pageshadow="2"
     inkscape:zoom="0.777"
     inkscape:cx="500"
     inkscape:cy="497.2973"
     inkscape:document-units="px"
     inkscape:current-layer="layer1"
     inkscape:window-width="1280"
     inkscape:window-height="975"
     inkscape:window-x="-4"
     inkscape:window-y="-4" />
  <metadata
     id="metadata6">
    <rdf:RDF>
      <cc:Work
         rdf:about="">
        <dc:format>image/svg+xml</dc:format>
        <dc:type
           rdf:resource="http://purl.org/dc/dcmitype/StillImage" />
      </cc:Work>
    </rdf:RDF>
  </metadata>
  <g
     inkscape:label="Vrstva 1"
     inkscape:groupmode="layer"
     id="layer1">
    <rect
       style="opacity:1;fill:#d9c58e;fill-opacity:1;fill-rule:evenodd;stroke:none;stroke-width:0;stroke-linejoin:round;stroke-miterlimit:4;stroke-dasharray:none;stroke-dashoffset:0;stroke-opacity:1"
       id="rect1870"
       width="1000"
       height="1000"
       x="0"
       y="-4.9737992e-014" />
    <g
       id="g3647">
      <path
         sodipodi:nodetypes="ccccccccccccccccccccccc"
         id="path2760"
         d="M 438.86744,425.99743 L 433.71943,305.01931 L 474.90347,249.67825 L 537.96654,249.67825 L 581.72458,307.59331 L 575.28958,431.14543 L 651.22265,369.36937 L 776.06178,314.02831 L 859.71686,347.49035 L 908.62291,419.56242 L 882.88288,507.07851 L 746.46075,733.59073 L 772.20077,806.94981 L 769.62677,846.84685 L 243.24324,853.28185 L 230.37323,830.11583 L 258.68726,718.14672 L 108.10811,460.74646 L 114.54311,391.24839 L 189.18919,320.46332 L 293.43629,330.75933 L 429.85843,424.71042 L 438.86744,425.99743 z "
         style="fill:white;fill-rule:evenodd;stroke:none;stroke-width:1px;stroke-linecap:butt;stroke-linejoin:miter;stroke-opacity:1;fill-opacity:1" />
      <path
         id="path1971"
         d="M 314.29525,881.06714 C 224.44094,855.92397 221.58588,853.36807 230.4678,806.02334 C 243.85142,734.68249 223.94721,666.05984 160.92029,566.2483 C 86.865675,448.97296 83.790771,413.70923 142.5,355 C 173.99236,323.50764 195.89371,312.5 227.06011,312.5 C 274.8927,312.5 352.59889,349.88264 402.77311,397.03145 L 436.79622,429.00302 L 429.23953,365.19855 C 422.19639,305.73023 424.34405,298.73288 460.84141,262.2355 C 510.28824,212.78869 514.27591,162.5 468.75,162.5 C 451.5625,162.5 437.5,156.875 437.5,150 C 437.5,143.125 451.5625,137.5 468.75,137.5 C 493.75,137.5 500,131.25 500,106.25 C 500,89.0625 505.625,75 512.5,75 C 519.375,75 525,89.0625 525,106.25 C 525,131.25 531.25,137.5 556.25,137.5 C 573.4375,137.5 587.5,143.125 587.5,150 C 587.5,156.875 573.4375,162.5 556.25,162.5 C 530.91212,162.5 525,168.66196 525,195.07055 C 525,212.98435 539.70452,245.11644 557.67674,266.4752 C 586.35919,300.56235 589.4581,312.86922 583.02863,367.15615 L 575.70378,429.00302 L 609.72689,397.03145 C 659.90111,349.88264 737.6073,312.5 785.43989,312.5 C 816.60629,312.5 838.50764,323.50764 870,355 C 928.80308,413.80308 925.66332,448.92704 851.04005,567.10295 C 790.25625,663.36219 772.98461,723.31551 778.95816,817.31361 C 780.95409,848.7208 774.79415,855.78762 731.25,872.04554 C 657.98941,899.39856 399.77271,904.98558 314.29525,881.06714 z M 375,818.65247 C 469.22469,793.43506 595.91954,798.62801 690.42716,831.58119 C 763.45388,857.04434 798.6722,847.84134 734.55104,820.05106 C 655.41881,785.75494 561.47896,771.47419 462.97357,778.7658 C 367.07081,785.86476 256.60199,816.70504 241.90676,840.48241 C 232.89966,855.05621 248.59964,852.4811 375,818.65247 z M 314.05341,766.71073 C 390.26944,737.74227 622.43194,737.8228 698.82486,766.8442 C 753.67714,787.68237 771.4783,787.13991 757.82371,765.04631 C 717.885,700.42413 274.64754,707.3074 252.7869,772.8893 C 246.51644,791.7007 248.95066,791.45521 314.05341,766.71073 z M 356.25,655.99999 C 397.5,646.03979 465,637.89053 506.25,637.89053 C 547.5,637.89053 615,646.03979 656.25,655.99999 C 697.5,665.9602 740.20916,674.30984 751.15924,674.55473 C 778.7805,675.17247 900,478.98743 900,433.66664 C 900,382.57086 839.15399,325 785.15143,325 C 738.27538,325 659.9969,362.31033 611.63334,407.70495 C 571.18483,445.67041 561.46085,436.07075 570.86526,367.45806 C 580.05962,300.37784 552.3461,250 506.25,250 C 460.1539,250 432.44038,300.37784 441.63474,367.45806 C 451.03915,436.07075 441.31518,445.67041 400.86666,407.70495 C 352.5031,362.31033 274.22463,325 227.34857,325 C 173.34601,325 112.5,382.57086 112.5,433.66664 C 112.5,478.98743 233.7195,675.17247 261.34076,674.55473 C 272.29084,674.30984 315,665.9602 356.25,655.99999 z M 184.375,552.84817 C 151.71875,500.03874 125,446.60086 125,434.09734 C 125,399.23672 181.4826,349.98361 221.30681,350.1173 C 268.83443,350.27685 378.53668,415.16167 421.2666,468.38611 C 440.50748,492.35256 462.38966,533.17639 469.8937,559.10574 L 483.53739,606.25 L 388.6437,619.97389 C 336.45216,627.52202 282.5,637.11047 268.75,641.28155 C 248.04569,647.56221 233.54774,632.36693 184.375,552.84817 z M 687.5,630.72955 C 649.6875,622.02915 598.25436,614.36825 573.20412,613.70533 L 527.65825,612.5 L 539.98158,563.94993 C 546.7594,537.24739 569.25788,494.83295 589.9782,469.69561 C 635.67009,414.26343 743.33876,350.27794 791.19319,350.1173 C 831.0174,349.98361 887.5,399.23672 887.5,434.09734 C 887.5,456.80136 774.33227,650.32356 762.5,647.85328 C 759.0625,647.13561 725.3125,639.42994 687.5,630.72955 z M 487.54258,561.5225 C 479.52493,531.12262 464.46172,492.99243 454.06879,476.78873 C 442.49145,458.7384 439.65136,442.84864 446.73612,435.76388 C 453.82089,428.67911 467.34916,454.08864 481.66398,501.36725 L 505.02824,578.53419 L 531.49001,499.28116 C 546.04399,455.69199 561.60543,425.93984 566.07097,433.16525 C 570.53654,440.39067 563.12239,468.01121 549.59509,494.54421 C 536.06779,521.07723 524.91386,551.44044 524.80859,562.01802 C 524.70331,572.59561 519.55534,589.24762 513.36865,599.0225 C 505.10989,612.07121 498.24554,602.10404 487.54258,561.5225 z M 483.85217,442.92995 C 459.21721,355.45295 457.33571,320.50601 475.4398,286.67824 C 502.79849,235.55806 550.79586,274.17565 549.23634,346.05324 C 548.81633,365.41145 538.7373,412.1875 526.83851,450 L 505.20436,518.75 L 483.85217,442.92995 z "
         style="fill:black" />
    </g>
  </g>
</svg>
