<?xml version="1.0" encoding="UTF-8" standalone="no"?>
<!-- Created with Inkscape (http://www.inkscape.org/) -->
<svg
   xmlns:dc="http://purl.org/dc/elements/1.1/"
   xmlns:cc="http://web.resource.org/cc/"
   xmlns:rdf="http://www.w3.org/1999/02/22-rdf-syntax-ns#"
   xmlns:svg="http://www.w3.org/2000/svg"
   xmlns="http://www.w3.org/2000/svg"
   xmlns:sodipodi="http://sodipodi.sourceforge.net/DTD/sodipodi-0.dtd"
   xmlns:inkscape="http://www.inkscape.org/namespaces/inkscape"
   width="1000"
   height="1000"
   id="svg2"
   inkscape:label="Pozadí"
   sodipodi:version="0.32"
   inkscape:version="0.44.1"
   sodipodi:docbase="F:\zzz-netestlé-zzz\colorsvgImages"
   sodipodi:docname="BLACK_BISHOP_D.svg">
  <defs
     id="defs3" />
  <sodipodi:namedview
     id="base"
     pagecolor="#ffffff"
     bordercolor="#666666"
     borderopacity="1.0"
     inkscape:pageopacity="0.0"
     inkscape:pageshadow="2"
     inkscape:zoom="0.777"
     inkscape:cx="500"
     inkscape:cy="513.79528"
     inkscape:document-units="px"
     inkscape:current-layer="layer1"
     inkscape:window-width="1280"
     inkscape:window-height="975"
     inkscape:window-x="-4"
     inkscape:window-y="-4" />
  <metadata
     id="metadata6">
    <rdf:RDF>
      <cc:Work
         rdf:about="">
        <dc:format>image/svg+xml</dc:format>
        <dc:type
           rdf:resource="http://purl.org/dc/dcmitype/StillImage" />
      </cc:Work>
    </rdf:RDF>
  </metadata>
  <g
     inkscape:label="Vrstva 1"
     inkscape:groupmode="layer"
     id="layer1">
    <rect
       style="opacity:1;fill:#786450;fill-opacity:1;fill-rule:evenodd;stroke:none;stroke-width:11.19999981;stroke-linejoin:round;stroke-miterlimit:4;stroke-dasharray:none;stroke-dashoffset:0;stroke-opacity:1"
       id="rect1870"
       width="1000"
       height="1000"
       x="0"
       y="0"
       ry="0" />
    <g
       id="g3645">
      <path
         id="path2758"
         d="M 357.78636,724.58172 L 655.08366,727.15573 L 619.04762,357.78636 L 404.1184,357.78636 L 357.78636,724.58172 z "
         style="fill:white;fill-rule:evenodd;stroke:none;stroke-width:1px;stroke-linecap:butt;stroke-linejoin:miter;stroke-opacity:1;fill-opacity:1" />
      <path
         id="path1897"
         d="M 151.048,907.36555 C 128.81856,883.7034 127.10885,876.31093 141.16733,864.64344 C 179.22081,833.06184 253.69735,812.5 330.03477,812.5 C 374.49552,812.5 426.70745,806.3952 446.06125,798.93379 L 481.25,785.36757 L 419.79259,761.85137 C 339.15056,730.99434 335.6867,726.36564 351.19768,670.18949 C 362.58751,628.93893 361.05318,618.70365 340.01106,595.56584 C 249.84631,496.42102 273.34964,409.53989 418.32069,306.0907 C 498.60953,248.79778 500.47582,246.24429 479.22429,222.76161 C 453.60689,194.45471 469.13064,156.25 506.25,156.25 C 543.36936,156.25 558.89311,194.45471 533.27571,222.76161 C 512.02418,246.24429 513.89048,248.79778 594.17931,306.0907 C 739.15036,409.53989 762.65369,496.42102 672.48894,595.56584 C 651.44682,618.70365 649.91249,628.93893 661.30233,670.18949 C 676.8133,726.36564 673.34944,730.99434 592.70741,761.85137 L 531.25,785.36757 L 566.43875,798.93379 C 585.79255,806.3952 638.00447,812.5 682.46522,812.5 C 758.80265,812.5 833.27919,833.06184 871.33267,864.64344 C 885.39115,876.31093 883.68144,883.7034 861.452,907.36555 L 834.57121,935.97882 L 789.34573,911.73941 C 760.8571,896.47043 718.60899,887.29695 675.18511,886.95134 C 637.2708,886.64958 583.85974,878.4292 556.49386,868.68382 C 513.33222,853.31337 499.60651,853.38609 452.93202,869.23249 C 423.33889,879.27963 369.70835,887.5 333.75305,887.5 C 292.94506,887.5 251.38541,896.60844 223.15428,911.73941 L 177.92879,935.97882 L 151.048,907.36555 z M 459.94019,697.81114 C 506.07961,684.2524 522.13707,685.05481 574.11786,703.51675 C 643.61561,728.20016 650,729.07016 650,713.85725 C 650,696.6121 554.51953,662.5 506.25,662.5 C 456.06416,662.5 362.5,696.87637 362.5,715.31514 C 362.5,722.24549 372.34375,724.69221 384.375,720.75229 C 396.40625,716.81236 430.41059,706.48885 459.94019,697.81114 z M 506.25,600 C 529.41737,600 562.60206,605.41006 579.99374,612.02236 C 600.25841,619.72699 614.28868,619.71857 619.05966,611.99896 C 629.7819,594.65001 569.86911,575 506.25,575 C 442.63089,575 382.7181,594.65001 393.44034,611.99896 C 398.21132,619.71857 412.24159,619.72699 432.50626,612.02236 C 449.89794,605.41006 483.08263,600 506.25,600 z M 525,481.25 C 525,458.33334 531.66666,450 550,450 C 563.75,450 575,444.375 575,437.5 C 575,430.625 563.75,425 550,425 C 531.66666,425 525,416.66666 525,393.75 C 525,376.5625 519.375,362.5 512.5,362.5 C 505.625,362.5 500,376.5625 500,393.75 C 500,416.66666 493.33334,425 475,425 C 461.25,425 450,430.625 450,437.5 C 450,444.375 461.25,450 475,450 C 493.33334,450 500,458.33334 500,481.25 C 500,498.4375 505.625,512.5 512.5,512.5 C 519.375,512.5 525,498.4375 525,481.25 z "
         style="fill:black" />
    </g>
  </g>
</svg>
