<?xml version="1.0" encoding="UTF-8" standalone="no"?>
<!-- Created with Inkscape (http://www.inkscape.org/) -->
<svg
   xmlns:dc="http://purl.org/dc/elements/1.1/"
   xmlns:cc="http://web.resource.org/cc/"
   xmlns:rdf="http://www.w3.org/1999/02/22-rdf-syntax-ns#"
   xmlns:svg="http://www.w3.org/2000/svg"
   xmlns="http://www.w3.org/2000/svg"
   xmlns:sodipodi="http://sodipodi.sourceforge.net/DTD/sodipodi-0.dtd"
   xmlns:inkscape="http://www.inkscape.org/namespaces/inkscape"
   width="1000"
   height="1000"
   id="svg2"
   inkscape:label="Pozadí"
   sodipodi:version="0.32"
   inkscape:version="0.44.1"
   sodipodi:docbase="F:\zzz-netestlé-zzz\colorsvgImages"
   sodipodi:docname="BLACK_QUEEN_D.svg">
  <defs
     id="defs3" />
  <sodipodi:namedview
     id="base"
     pagecolor="#ffffff"
     bordercolor="#666666"
     borderopacity="1.0"
     inkscape:pageopacity="0.0"
     inkscape:pageshadow="2"
     inkscape:zoom="0.777"
     inkscape:cx="500"
     inkscape:cy="359.80041"
     inkscape:document-units="px"
     inkscape:current-layer="layer1"
     inkscape:window-width="1280"
     inkscape:window-height="975"
     inkscape:window-x="-4"
     inkscape:window-y="-4" />
  <metadata
     id="metadata6">
    <rdf:RDF>
      <cc:Work
         rdf:about="">
        <dc:format>image/svg+xml</dc:format>
        <dc:type
           rdf:resource="http://purl.org/dc/dcmitype/StillImage" />
      </cc:Work>
    </rdf:RDF>
  </metadata>
  <g
     inkscape:label="Vrstva 1"
     inkscape:groupmode="layer"
     id="layer1">
    <g
       id="g2762">
      <rect
         y="-4.2632564e-014"
         x="0"
         height="1000"
         width="1000"
         id="rect1870"
         style="fill:#786450;fill-opacity:1;fill-rule:evenodd;stroke:none;stroke-width:0;stroke-linejoin:round;stroke-miterlimit:4;stroke-dasharray:none;stroke-dashoffset:0;stroke-opacity:1" />
      <path
         sodipodi:nodetypes="ccccccc"
         id="path1872"
         d="M 204.63321,642.21364 L 270.27027,796.6538 L 248.39125,872.58687 L 768.33977,871.29987 L 743.88674,769.62677 L 813.38481,638.35264 L 204.63321,642.21364 z "
         style="fill:white;fill-opacity:1;fill-rule:evenodd;stroke:none;stroke-width:1px;stroke-linecap:butt;stroke-linejoin:miter;stroke-opacity:1" />
      <path
         id="path1897"
         d="M 312.5,901.06814 C 247.65786,880.82665 225,871.91971 225,866.67136 C 225,863.69429 234.0488,843.76004 245.10845,822.37304 C 263.45046,786.9035 263.48919,779.86449 245.54924,742.24404 C 234.73203,719.5601 209.49154,678.37471 189.45926,650.72096 C 157.6906,606.8656 150.95755,581.78517 136.76239,454.4264 C 122.74257,328.64081 116.47092,304.91872 91.49392,283.2015 C 58.21733,254.26787 54.229523,222.425 81.090814,200.13211 C 118.35067,169.20917 167.3992,219.26886 141.10084,261.37925 C 131.16511,277.28886 144.41801,314.17269 199.61971,424.24174 L 270.98329,566.53662 L 279.16673,461.39331 C 292.5459,289.4934 289.67146,217.36327 268.75,200 C 244.78698,180.11246 244.71221,144.94959 268.59081,125.13211 C 306.80487,93.417264 354.7142,144.56509 327.54445,188.07079 C 316.50854,205.7421 325.647,245.97887 371.8821,383.28998 C 403.9134,478.41799 431.83559,547.8125 433.9314,537.5 C 436.02721,527.1875 451.22922,442.8125 467.71364,350 C 493.58451,204.33874 495.27824,178.54991 480.09265,161.51574 C 456.95906,135.56603 457.8014,106.96061 482.29779,86.630419 C 523.82476,52.166088 570.31158,119.0518 533.50301,160.30505 C 516.86249,178.95495 518.09886,199.74089 544.78636,350 C 561.27078,442.8125 576.47279,527.1875 578.5686,537.5 C 580.66441,547.8125 608.5866,478.41799 640.6179,383.28998 C 686.853,245.97887 695.99146,205.7421 684.95555,188.07079 C 657.7858,144.56509 705.69512,93.417264 743.90919,125.13211 C 767.78779,144.94959 767.71303,180.11246 743.75,200 C 722.82854,217.36327 719.9541,289.4934 733.33328,461.39331 L 741.51671,566.53662 L 812.88029,424.24174 C 868.08199,314.17269 881.33489,277.28886 871.39916,261.37925 C 845.1008,219.26886 894.14934,169.20917 931.40919,200.13211 C 958.27047,222.425 954.28267,254.26787 921.00608,283.2015 C 896.02908,304.91872 889.75743,328.64081 875.73761,454.4264 C 861.79054,579.5593 854.50563,607.28494 824.79899,648.29377 C 805.73375,674.61257 780.49325,714.79105 768.709,737.57929 C 748.70411,776.26446 748.65228,781.88364 767.9273,822.30379 C 779.28161,846.11404 786.92417,866.305 784.91075,867.17258 C 782.89734,868.04016 767.1875,877.00419 750,887.09265 C 715.02915,907.6193 368.90514,918.67587 312.5,901.06814 z M 381.25,841.26604 C 468.7129,818.69064 601.14538,824.90661 686.63286,855.59977 C 719.86637,867.53184 746.56084,870.93916 753.38043,864.11957 C 777.91649,839.58351 635.56664,806.25 506.25,806.25 C 377.66979,806.25 241.19306,838.13736 257.41744,864.38895 C 261.60366,871.16241 274.30354,873.0864 285.63939,868.66446 C 296.97523,864.24254 340,851.91325 381.25,841.26604 z M 360.48868,774.83874 C 460.69273,743.42804 551.31281,743.32095 651.47479,774.49486 C 694.76098,787.96704 732.85587,796.31079 736.13014,793.03652 C 760.60909,768.55758 607.47744,724.77199 500.85624,725.76366 C 411.75209,726.59241 286.36248,759.66258 278.0769,784.51931 C 271.66304,803.7609 266.16191,804.4071 360.48868,774.83874 z M 368.75,678.94999 C 468.56381,657.39638 607.84886,663.12144 705.66674,692.79832 C 739.72094,703.13001 770.28344,708.88323 773.5834,705.58326 C 787.90081,691.26586 748.18218,673.24674 661.68394,654.81792 C 514.14759,623.38468 256.08278,650.50169 239.86951,699.14146 C 235.66525,711.75424 240.51954,713.94215 257.66938,707.16415 C 270.63873,702.03839 320.625,689.342 368.75,678.94999 z "
         style="fill:black" />
    </g>
  </g>
</svg>
