<?xml version="1.0" encoding="UTF-8" standalone="no"?>
<!-- Created with Inkscape (http://www.inkscape.org/) -->
<svg
   xmlns:dc="http://purl.org/dc/elements/1.1/"
   xmlns:cc="http://web.resource.org/cc/"
   xmlns:rdf="http://www.w3.org/1999/02/22-rdf-syntax-ns#"
   xmlns:svg="http://www.w3.org/2000/svg"
   xmlns="http://www.w3.org/2000/svg"
   xmlns:sodipodi="http://sodipodi.sourceforge.net/DTD/sodipodi-0.dtd"
   xmlns:inkscape="http://www.inkscape.org/namespaces/inkscape"
   width="1000"
   height="1000"
   id="svg2"
   inkscape:label="Pozadí"
   sodipodi:version="0.32"
   inkscape:version="0.44.1"
   sodipodi:docbase="F:\zzz-netestlé-zzz\svgImages"
   sodipodi:docname="WHITE_BISHOP_L.svg">
  <defs
     id="defs3" />
  <sodipodi:namedview
     id="base"
     pagecolor="#ffffff"
     bordercolor="#666666"
     borderopacity="1.0"
     inkscape:pageopacity="0.0"
     inkscape:pageshadow="2"
     inkscape:zoom="0.777"
     inkscape:cx="500"
     inkscape:cy="431.23693"
     inkscape:document-units="px"
     inkscape:current-layer="layer1"
     inkscape:window-width="1280"
     inkscape:window-height="975"
     inkscape:window-x="-4"
     inkscape:window-y="-4" />
  <metadata
     id="metadata6">
    <rdf:RDF>
      <cc:Work
         rdf:about="">
        <dc:format>image/svg+xml</dc:format>
        <dc:type
           rdf:resource="http://purl.org/dc/dcmitype/StillImage" />
      </cc:Work>
    </rdf:RDF>
  </metadata>
  <g
     inkscape:label="Vrstva 1"
     inkscape:groupmode="layer"
     id="layer1">
    <g
       id="g3673">
      <rect
         y="1.5258789e-005"
         x="0"
         height="1000"
         width="1000"
         id="rect1880"
         style="opacity:1;fill:#d9c58e;fill-opacity:1;fill-rule:evenodd;stroke:none;stroke-width:0;stroke-linejoin:round;stroke-miterlimit:4;stroke-dasharray:none;stroke-dashoffset:0;stroke-opacity:1" />
      <path
         id="path2768"
         d="M 458.17246,207.20721 L 463.32046,142.85714 L 546.97555,142.85714 L 549.54955,212.35521 L 507.07851,235.52124 L 666.66667,353.92535 L 714.28571,423.42342 L 710.42471,517.37452 L 647.36165,608.75161 L 667.95367,702.7027 L 640.92664,728.44273 L 541.82754,768.33977 L 594.59459,795.3668 L 827.54183,830.11583 L 875.16088,862.29086 L 872.58687,884.16988 L 836.55084,917.63192 L 682.11068,870.01287 L 495.4955,841.69884 L 200.7722,904.7619 L 172.45817,917.63192 L 136.42214,881.59588 L 140.28314,857.14286 L 258.68726,810.81081 L 435.00644,792.79279 L 477.47748,761.90476 L 355.21236,718.14672 L 348.77735,651.22265 L 362.93436,592.02059 L 325.61133,557.27156 L 288.28829,462.03346 L 338.48134,362.93436 L 486.48649,234.23423 L 458.17246,207.20721 z "
         style="fill:white;fill-rule:evenodd;stroke:none;stroke-width:1px;stroke-linecap:butt;stroke-linejoin:miter;stroke-opacity:1;fill-opacity:1" />
      <g
         id="g1987">
        <path
           id="path2007"
           d=""
           style="fill:#e6e6e6;fill-opacity:1" />
        <path
           id="path2005"
           d=""
           style="fill:#d2d2d2;fill-opacity:1" />
        <path
           id="path2003"
           d=""
           style="fill:#bebebe;fill-opacity:1" />
        <path
           id="path2001"
           d=""
           style="fill:#aaa;fill-opacity:1" />
        <path
           id="path1999"
           d=""
           style="fill:#969696;fill-opacity:1" />
        <path
           id="path1997"
           d=""
           style="fill:#828282;fill-opacity:1" />
        <path
           id="path1995"
           d=""
           style="fill:#6e6e6e;fill-opacity:1" />
        <path
           id="path1993"
           d=""
           style="fill:#5b5b5b;fill-opacity:1" />
        <path
           id="path1991"
           d=""
           style="fill:#474747;fill-opacity:1" />
        <path
           id="path1989"
           d="M 144.46283,900.78766 C 100.47191,852.17825 175.01813,811.32862 328.45623,799.96349 C 465.8236,789.7887 487.78946,772.90898 401.12256,744.12285 C 333.28296,721.59015 328.55685,712.2679 348.94063,641.19383 C 357.69572,610.66659 356.03515,597.69578 341.86641,585.93676 C 313.47256,562.37196 287.49481,505.13113 287.54672,466.24575 C 287.61576,414.54395 327.16759,358.61092 405.45499,299.50336 C 475.63699,246.51544 485.29765,232.83973 462.5,218.75 C 445.22169,208.07141 446.80506,158.19494 465,140 C 484.28126,120.71874 528.21874,120.71874 547.5,140 C 565.69494,158.19494 567.27831,208.07141 550,218.75 C 527.20235,232.83973 536.86301,246.51544 607.04501,299.50336 C 685.33241,358.61092 724.88424,414.54395 724.95328,466.24575 C 725.00519,505.13113 699.02744,562.37196 670.63359,585.93676 C 656.46485,597.69578 654.80427,610.66659 663.55938,641.19383 C 683.94315,712.2679 679.21704,721.59015 611.37744,744.12285 C 524.71054,772.90898 546.6764,789.7887 684.04378,799.96349 C 840.8305,811.57666 914.47911,853.57644 864.93487,903.12069 C 840.15058,927.90498 837.892,928.03455 793.96981,907.19211 C 769.01849,895.35192 705.09042,881.27791 651.90745,875.91651 C 598.72447,870.5551 544.04962,860.19505 530.40778,852.89415 C 512.95737,843.55499 498.60116,843.53902 481.98067,852.84031 C 468.98761,860.1116 414.21206,870.5111 360.25724,875.95031 C 306.30241,881.38952 244.49539,894.65084 222.9083,905.4199 C 173.31886,930.15836 170.91445,930.01639 144.46283,900.78766 z M 222.9083,892.9199 C 244.49539,882.15084 306.30241,868.88952 360.25724,863.45031 C 414.21206,858.0111 468.98761,847.6116 481.98067,840.34031 C 498.60116,831.03902 512.95737,831.05499 530.40778,840.39415 C 544.04962,847.69505 598.72447,858.0551 651.90745,863.41651 C 705.09042,868.77791 768.64209,882.67331 793.13336,894.29519 C 828.95078,911.29166 841.31545,912.39458 856.33149,899.93237 C 866.59916,891.41095 875,879.64709 875,873.79044 C 875,848.35764 787.27025,820.10939 684.68156,812.50949 C 609.07969,806.90881 568.50492,797.99672 552.44731,783.46479 C 522.95767,756.77704 489.54233,756.77704 460.05269,783.46479 C 443.99508,797.99672 403.42031,806.90881 327.81844,812.50949 C 226.81197,819.99217 137.5,848.29495 137.5,872.821 C 137.5,884.54642 164.32676,912.5 175.57952,912.5 C 180.02326,912.5 201.32121,903.68895 222.9083,892.9199 z M 601.02155,735.71711 C 655.27548,719.46224 665.05111,703.38055 654.06597,648.4549 C 644.67135,601.48174 591.38117,575 506.25,575 C 421.11883,575 367.82865,601.48174 358.43402,648.4549 C 354.16914,669.77931 353.66463,695.00518 357.31289,704.51239 C 372.35595,743.71399 513.85772,761.83203 601.02155,735.71711 z M 381.25,684.54673 C 396.01451,675.21749 447.19194,668.75 506.25,668.75 C 565.30806,668.75 616.48549,675.21749 631.25,684.54673 C 653.53965,698.63086 652.18448,699.30845 618.75,690.79672 C 598.125,685.54602 547.5,681.25 506.25,681.25 C 465,681.25 414.375,685.54602 393.75,690.79672 C 360.31552,699.30845 358.96035,698.63086 381.25,684.54673 z M 506.25,569.91421 C 547.5,569.91421 599.22374,574.51264 621.19164,580.13294 C 657.74775,589.4855 663.30627,586.78736 686.76991,548.30083 C 717.23815,498.32491 719.4644,449.72618 693.57859,399.66852 C 670.57575,355.18593 514.93686,234.7014 495.31223,246.18485 C 487.578,250.71056 448.8638,279.09433 409.28066,309.25989 C 299.12666,393.20617 274.36534,464.04914 325.73009,548.30083 C 349.19372,586.78736 354.75225,589.4855 391.30836,580.13294 C 413.27626,574.51264 465,569.91421 506.25,569.91421 z M 501.8729,460.20528 C 500.3995,433.8159 492.66756,425.54979 465.625,421.45317 L 431.25,416.2458 L 464.79472,414.3729 C 491.1841,412.8995 499.45021,405.16756 503.54683,378.125 L 508.7542,343.75 L 510.6271,377.29473 C 512.1005,403.6841 519.83244,411.95021 546.875,416.04683 L 581.25,421.2542 L 547.70528,423.1271 C 521.3159,424.6005 513.04979,432.33244 508.95317,459.375 L 503.7458,493.75 L 501.8729,460.20528 z M 543.75,181.25 C 543.75,147.95489 539.56431,143.75 506.42119,143.75 C 480.34879,143.75 467.77964,150.56654 464.73902,166.35516 C 456.93072,206.9004 472.75811,226.9158 509.30393,222.71214 C 538.36354,219.36958 543.75,212.88598 543.75,181.25 z "
           style="fill:#333;fill-opacity:1" />
      </g>
    </g>
  </g>
</svg>
