<?xml version="1.0" encoding="UTF-8" standalone="no"?>
<!-- Created with Inkscape (http://www.inkscape.org/) -->
<svg
   xmlns:dc="http://purl.org/dc/elements/1.1/"
   xmlns:cc="http://web.resource.org/cc/"
   xmlns:rdf="http://www.w3.org/1999/02/22-rdf-syntax-ns#"
   xmlns:svg="http://www.w3.org/2000/svg"
   xmlns="http://www.w3.org/2000/svg"
   xmlns:sodipodi="http://sodipodi.sourceforge.net/DTD/sodipodi-0.dtd"
   xmlns:inkscape="http://www.inkscape.org/namespaces/inkscape"
   width="1000"
   height="1000"
   id="svg2"
   inkscape:label="Pozadí"
   sodipodi:version="0.32"
   inkscape:version="0.44.1"
   sodipodi:docbase="F:\zzz-netestlé-zzz\colorsvgImages"
   sodipodi:docname="WHITE_KING_D.svg">
  <defs
     id="defs3" />
  <sodipodi:namedview
     id="base"
     pagecolor="#ffffff"
     bordercolor="#666666"
     borderopacity="1.0"
     inkscape:pageopacity="0.0"
     inkscape:pageshadow="2"
     inkscape:zoom="0.777"
     inkscape:cx="500"
     inkscape:cy="578.70873"
     inkscape:document-units="px"
     inkscape:current-layer="layer1"
     inkscape:window-width="1280"
     inkscape:window-height="975"
     inkscape:window-x="-4"
     inkscape:window-y="-4" />
  <metadata
     id="metadata6">
    <rdf:RDF>
      <cc:Work
         rdf:about="">
        <dc:format>image/svg+xml</dc:format>
        <dc:type
           rdf:resource="http://purl.org/dc/dcmitype/StillImage" />
      </cc:Work>
    </rdf:RDF>
  </metadata>
  <g
     inkscape:label="Vrstva 1"
     inkscape:groupmode="layer"
     id="layer1">
    <rect
       style="fill:#786450;fill-opacity:1;fill-rule:evenodd;stroke:none;stroke-width:0;stroke-linejoin:round;stroke-miterlimit:4;stroke-dasharray:none;stroke-dashoffset:0;stroke-opacity:1"
       id="rect1870"
       width="1000"
       height="1000"
       x="0"
       y="-5.6843419e-014" />
    <path
       style="fill:white;fill-opacity:1;fill-rule:evenodd;stroke:none;stroke-width:1px;stroke-linecap:butt;stroke-linejoin:miter;stroke-opacity:1"
       d="M 480.05148,234.23423 L 536.67954,234.23423 L 581.72458,303.7323 L 575.28958,418.27542 L 707.85071,321.75032 L 818.53282,310.16731 L 895.7529,375.80438 L 904.7619,446.58945 L 777.34878,679.53668 L 776.06178,836.55084 L 675.67568,867.43887 L 370.65637,876.44788 L 252.25225,845.55985 L 229.08623,781.20978 L 226.51222,655.08365 L 108.10811,438.86744 L 120.97812,370.65637 L 202.0592,303.7323 L 316.60232,326.89833 L 440.15444,418.27542 L 436.29344,284.42728 L 480.05148,234.23423 z "
       id="path1872"
       sodipodi:nodetypes="cccccccccccccccccccccc" />
    <path
       style="fill:black"
       d="M 328.70674,875.16439 C 230.30709,854.26067 225,847.64692 225,745.92374 C 225,658.61802 222.66326,651.52655 162.5,556.25 C 86.780439,436.33799 83.518969,401.48102 142.5,342.5 C 173.99236,311.00764 195.89371,300 227.06011,300 C 274.8927,300 352.59889,337.38264 402.77311,384.53145 L 436.79622,416.50302 L 429.23953,352.69855 C 422.19639,293.23023 424.34405,286.23288 460.84141,249.7355 C 510.28824,200.28869 514.27591,150 468.75,150 C 451.5625,150 437.5,144.375 437.5,137.5 C 437.5,130.625 451.5625,125 468.75,125 C 493.75,125 500,118.75 500,93.75 C 500,76.5625 505.625,62.5 512.5,62.5 C 519.375,62.5 525,76.5625 525,93.75 C 525,118.75 531.25,125 556.25,125 C 573.4375,125 587.5,130.625 587.5,137.5 C 587.5,144.375 573.4375,150 556.25,150 C 530.91212,150 525,156.16196 525,182.57055 C 525,200.48435 539.70452,232.61644 557.67674,253.9752 C 586.35919,288.06235 589.4581,300.36922 583.02863,354.65615 L 575.70378,416.50302 L 609.72689,384.53145 C 659.90111,337.38264 737.6073,300 785.43989,300 C 816.60629,300 838.50764,311.00764 870,342.5 C 928.98103,401.48102 925.71956,436.33799 850,556.25 C 789.66252,651.80244 787.5,658.4025 787.5,747.00137 L 787.5,838.77566 L 740.625,858.72872 C 685.79615,882.06748 412.52738,892.97098 328.70674,875.16439 z M 731.30802,848.93469 C 756.61661,836.85602 769.99295,820.35775 772.58556,798.02325 C 778.51992,746.90084 684.52161,719.01701 506.25,719.01701 C 337.43796,719.01701 237.5,746.6118 237.5,793.22403 C 237.5,830.73861 260.16418,848.28106 326.79199,862.33751 C 408.68744,879.61497 686.29588,870.41697 731.30802,848.93469 z M 300,803.38306 C 373.48422,778.372 608.32321,775.35969 697.54971,798.28363 C 791.85441,822.51224 771.01759,828.13486 667.88776,806.28761 C 557.67728,782.94039 454.55609,782.99748 343.75468,806.46705 C 236.90639,829.09927 226.582,828.37158 300,803.38306 z M 301.55341,729.10168 C 341.67981,713.77029 396.20731,708.20334 506.25,708.20334 C 616.29269,708.20334 670.82019,713.77029 710.94659,729.10168 C 741.0297,740.59575 768.088,750 771.07615,750 C 774.06429,750 774.76333,728.92005 772.62956,703.15567 L 768.75,656.31134 L 687.5,641.23915 C 642.8125,632.94945 561.25,626.16696 506.25,626.16696 C 451.25,626.16696 369.6875,632.94945 325,641.23915 L 243.75,656.31134 L 239.87044,703.15567 C 237.73668,728.92005 238.43571,750 241.42385,750 C 244.412,750 271.4703,740.59575 301.55341,729.10168 z M 384.76142,621.07893 L 500.77285,606.97485 L 493.11503,569.11242 C 488.90322,548.28809 474.91118,509.22375 462.0216,482.30277 C 449.13201,455.38179 442.05597,427.25679 446.29706,419.80277 C 450.53815,412.34875 449.27755,410.5475 443.49572,415.80001 C 437.7139,421.05251 418.53081,411.78474 400.86666,395.20495 C 352.5031,349.81033 274.22463,312.5 227.34857,312.5 C 173.32409,312.5 112.5,370.06989 112.5,421.20397 C 112.5,470.82647 224.97842,651.62973 250,642.22812 C 260.3125,638.3533 320.95514,628.83616 384.76142,621.07893 z M 840.625,552.99458 C 910.67654,439.53934 915.03515,400.61208 863.46154,349.03846 C 804.58326,290.16019 703.87932,308.62176 611.63334,395.20495 C 593.96919,411.78474 574.7861,421.05251 569.00428,415.80001 C 563.22245,410.5475 561.96185,412.34875 566.20294,419.80277 C 570.44403,427.25679 563.36799,455.38179 550.4784,482.30277 C 537.58883,509.22375 523.49954,548.73081 519.16889,570.09626 L 511.29498,608.94251 L 602.52249,617.21283 C 652.69763,621.7615 710.625,630.51595 731.25,636.66716 C 751.875,642.81837 771.5625,648.14524 775,648.50465 C 778.4375,648.86406 807.96875,605.88453 840.625,552.99458 z M 575,325.2217 C 575,248.46243 496.6176,208.66046 456.9588,265.28132 C 429.79028,304.06984 432.43263,339.20121 471.5538,459.32874 L 505.60761,563.89611 L 540.3038,460.63842 C 559.38671,403.84669 575,342.90916 575,325.2217 z "
       id="path1897" />
  </g>
</svg>
