<?xml version="1.0" encoding="UTF-8" standalone="no"?>
<!-- Created with Inkscape (http://www.inkscape.org/) -->
<svg
   xmlns:dc="http://purl.org/dc/elements/1.1/"
   xmlns:cc="http://web.resource.org/cc/"
   xmlns:rdf="http://www.w3.org/1999/02/22-rdf-syntax-ns#"
   xmlns:svg="http://www.w3.org/2000/svg"
   xmlns="http://www.w3.org/2000/svg"
   xmlns:sodipodi="http://sodipodi.sourceforge.net/DTD/sodipodi-0.dtd"
   xmlns:inkscape="http://www.inkscape.org/namespaces/inkscape"
   width="1000"
   height="1000"
   id="svg2"
   inkscape:label="Pozadí"
   sodipodi:version="0.32"
   inkscape:version="0.44.1"
   sodipodi:docbase="F:\zzz-netestlé-zzz\colorsvgImages"
   sodipodi:docname="WHITE_PAWN_D.svg">
  <defs
     id="defs3" />
  <sodipodi:namedview
     id="base"
     pagecolor="#ffffff"
     bordercolor="#666666"
     borderopacity="1.0"
     inkscape:pageopacity="0.0"
     inkscape:pageshadow="2"
     inkscape:zoom="0.777"
     inkscape:cx="505.46583"
     inkscape:cy="598.57346"
     inkscape:document-units="px"
     inkscape:current-layer="layer1"
     inkscape:window-width="1280"
     inkscape:window-height="975"
     inkscape:window-x="-4"
     inkscape:window-y="-4" />
  <metadata
     id="metadata6">
    <rdf:RDF>
      <cc:Work
         rdf:about="">
        <dc:format>image/svg+xml</dc:format>
        <dc:type
           rdf:resource="http://purl.org/dc/dcmitype/StillImage" />
      </cc:Work>
    </rdf:RDF>
  </metadata>
  <g
     inkscape:label="Vrstva 1"
     inkscape:groupmode="layer"
     id="layer1">
    <rect
       style="opacity:1;fill:#786450;fill-opacity:1;fill-rule:evenodd;stroke:none;stroke-width:0;stroke-linejoin:round;stroke-miterlimit:4;stroke-dasharray:none;stroke-dashoffset:0;stroke-opacity:1"
       id="rect1870"
       width="1000"
       height="1000"
       x="0"
       y="3.5527137e-015" />
    <path
       style="fill:white;fill-rule:evenodd;stroke:none;stroke-width:1px;stroke-linecap:butt;stroke-linejoin:miter;stroke-opacity:1;fill-opacity:1"
       d="M 453.02445,288.28829 L 416.98842,208.49421 L 459.45946,141.57014 L 539.25354,137.70914 L 584.29858,180.18018 L 585.58559,239.38224 L 561.13256,280.56628 L 643.50065,346.20335 L 666.66667,446.58945 L 635.77864,517.37452 L 602.3166,545.68855 L 709.13771,608.75161 L 776.06178,709.13771 L 795.3668,823.68082 L 791.50579,876.44788 L 223.93822,879.02188 L 221.36422,756.75676 L 292.14929,617.76062 L 384.81338,553.41055 L 418.27542,544.40154 L 361.64736,492.92149 L 344.91634,404.1184 L 386.10039,326.89833 L 453.02445,288.28829 z "
       id="path1872"
       sodipodi:nodetypes="cccccccccccccccccccccccc" />
    <path
       style="fill:black"
       d="M 221.0621,879.39543 C 216.35294,874.68628 212.55495,845.05209 212.62211,813.54166 C 212.84263,710.082 294.12556,581.91855 376.00142,555.93216 L 402.13775,547.63681 L 375.57386,519.36085 C 317.44831,457.48904 335.90521,346.27456 411.49894,302.88973 C 445.03389,283.64331 445.5595,281.78885 426.76239,249.03677 C 410.90903,221.4139 410.0645,209.03804 422.21335,182.37423 C 454.43354,111.6586 548.66356,109.4079 587.11331,178.43556 C 604.37524,209.42536 604.29165,216.22804 586.26006,247.87399 C 566.7935,282.03839 567.17944,283.47879 601.00106,302.88973 C 676.27245,346.08958 695.07514,457.46408 637.45205,518.80104 L 611.41408,546.51719 L 649.51456,562.29892 C 733.73155,597.18274 804.98286,723.9012 797.70483,825.85114 L 793.75,881.25 L 511.6871,884.60376 C 356.5525,886.44832 225.77125,884.10457 221.0621,879.39543 z M 787.37789,815.625 C 787.1505,705.05954 721.10976,602.30996 624.57154,562.32253 L 585.61993,546.18824 L 618.58966,519.89909 C 689.3313,463.49168 661.05658,321.58631 575.6732,304.50964 L 538.86076,297.14715 L 564.78781,262.07894 C 614.41835,194.95005 556.69719,117.13064 477.84407,144.8618 C 427.3209,162.62985 413.25528,215.47347 446.92667,261.01649 L 473.63924,297.14715 L 436.8268,304.50964 C 351.44342,321.58631 323.1687,463.49168 393.91034,519.89909 L 426.88007,546.18824 L 387.92846,562.32253 C 291.39024,602.30996 225.3495,705.05954 225.12211,815.625 L 225,875 L 506.25,875 L 787.5,875 L 787.37789,815.625 z "
       id="path1977" />
  </g>
</svg>
