<?xml version="1.0" encoding="UTF-8" standalone="no"?>
<!-- Created with Inkscape (http://www.inkscape.org/) -->
<svg
   xmlns:dc="http://purl.org/dc/elements/1.1/"
   xmlns:cc="http://web.resource.org/cc/"
   xmlns:rdf="http://www.w3.org/1999/02/22-rdf-syntax-ns#"
   xmlns:svg="http://www.w3.org/2000/svg"
   xmlns="http://www.w3.org/2000/svg"
   xmlns:sodipodi="http://sodipodi.sourceforge.net/DTD/sodipodi-0.dtd"
   xmlns:inkscape="http://www.inkscape.org/namespaces/inkscape"
   width="1000"
   height="1000"
   id="svg2"
   inkscape:label="Pozadí"
   sodipodi:version="0.32"
   inkscape:version="0.44.1"
   sodipodi:docbase="F:\zzz-netestlé-zzz\colorsvgImages"
   sodipodi:docname="WHITE_KNIGHT_D.svg">
  <defs
     id="defs3" />
  <sodipodi:namedview
     id="base"
     pagecolor="#ffffff"
     bordercolor="#666666"
     borderopacity="1.0"
     inkscape:pageopacity="0.0"
     inkscape:pageshadow="2"
     inkscape:zoom="0.777"
     inkscape:cx="500"
     inkscape:cy="527.16743"
     inkscape:document-units="px"
     inkscape:current-layer="layer1"
     inkscape:window-width="1280"
     inkscape:window-height="975"
     inkscape:window-x="-4"
     inkscape:window-y="-4" />
  <metadata
     id="metadata6">
    <rdf:RDF>
      <cc:Work
         rdf:about="">
        <dc:format>image/svg+xml</dc:format>
        <dc:type
           rdf:resource="http://purl.org/dc/dcmitype/StillImage" />
      </cc:Work>
    </rdf:RDF>
  </metadata>
  <g
     inkscape:label="Vrstva 1"
     inkscape:groupmode="layer"
     id="layer1">
    <rect
       style="fill:#786450;fill-opacity:1;fill-rule:evenodd;stroke:none;stroke-width:0;stroke-linejoin:round;stroke-miterlimit:4;stroke-dasharray:none;stroke-dashoffset:0;stroke-opacity:1"
       id="rect1870"
       width="1000"
       height="1000"
       x="0"
       y="-6.750156e-014" />
    <path
       style="fill:white;fill-opacity:1;fill-rule:evenodd;stroke:none;stroke-width:1px;stroke-linecap:butt;stroke-linejoin:miter;stroke-opacity:1"
       d="M 458.17246,78.507079 L 517.37452,177.60618 L 655.08366,199.4852 L 760.61776,288.28829 L 840.41184,447.87645 L 906.04891,768.33977 L 906.04891,881.59588 L 329.47233,879.02188 L 344.91634,791.50579 L 469.75547,646.07465 L 503.2175,559.84556 L 508.36551,462.03346 L 334.62033,571.42857 L 258.68726,676.96268 L 220.07722,694.98069 L 131.27413,639.63964 L 104.2471,590.73359 L 140.28314,483.91248 L 195.6242,382.23938 L 223.93822,261.26126 L 285.71429,194.33719 L 277.99228,91.377091 L 387.38739,148.00515 L 458.17246,78.507079 z "
       id="path1872" />
    <path
       style="fill:black"
       d="M 325,855.62925 C 325,811.52321 352.09792,764.05644 406.7099,712.5 C 432.19849,688.4375 463.49237,646.25 476.25187,618.75 C 499.10118,569.50386 508.91529,481.36894 490.625,489.67311 C 380.05514,539.87414 324.37703,579.45516 298.03544,626.58314 C 256.37199,701.12357 236.75144,710.15754 180.72538,680.59663 C 87.302742,631.30424 79.549536,572.28753 151.72101,459.81804 C 175.82424,422.25641 193.01876,376.65751 196.83224,340.18568 C 201.34285,297.04638 213.10301,270.56611 240.709,241.38884 C 274.25631,205.93204 277.71344,195.22804 271.99721,144.51384 C 268.45975,113.12948 270.79136,87.5 277.18399,87.5 C 283.57118,87.5 310.69287,100.10163 337.45443,115.50363 L 386.1118,143.50726 L 423.33386,107.84626 L 460.55593,72.185258 L 485.94194,121.94595 C 509.53869,168.1994 515.75275,172.13181 574.10669,177.73889 C 698.18256,189.66101 790.5127,283.84093 843.94461,452.98284 C 881.07163,570.51065 912.5,741.80796 912.5,826.63738 L 912.5,887.5 L 618.75,887.5 L 325,887.5 L 325,855.62925 z M 900,820.38738 C 900,666.66904 823.17909,382.26271 758.97069,298.2688 C 708.92911,232.80715 625.98374,187.5 556.18239,187.5 C 506.91474,187.5 502.4166,184.43914 480.60631,136.07255 L 457.41576,84.645094 L 423.61344,122.47646 C 405.02216,143.28371 365.38486,171.31981 335.53056,184.7789 C 256.67635,220.32842 216.7781,269.47026 209.35584,340.18568 C 205.4988,376.93346 188.22544,422.41038 163.47416,460.9819 C 110.26461,543.9018 101.29092,601.29091 136.09283,636.09282 C 150.61677,650.61678 170.0657,662.5 179.31265,662.5 C 207.02771,662.5 241.45666,615.85947 232.02544,591.09056 C 225.74927,574.60767 227.19985,572.40069 237.55778,582.67334 C 247.37304,592.40781 247.93501,609.33079 239.4257,638.92334 C 232.73165,662.203 226.7474,673.88677 226.12735,664.88729 C 224.83966,646.1973 200,657.3395 200,676.6071 C 200,683.55453 212.31723,687.4413 227.37163,685.24439 C 244.36705,682.76421 267.17975,659.92642 287.54983,625 C 313.1654,581.07969 340.27524,557.7746 411.22925,518.67845 C 502.9339,468.14856 534.83194,432.21148 538.75934,375 C 540.7094,346.59278 541.38725,346.23154 546.21079,371.02894 C 549.12923,386.03236 542.7382,415.28427 532.00851,436.03319 C 521.27884,456.78211 512.37646,495.13159 512.22547,521.25425 C 511.85803,584.82684 475.6995,659.171 419.2099,712.5 C 367.12306,761.67259 337.5,811.29671 337.5,849.37925 C 337.5,874.44779 343.56192,875 618.75,875 L 900,875 L 900,820.38738 z M 139.42448,587.881 C 141.80351,571.56096 150.78125,555.8926 159.375,553.06244 C 181.86469,545.65593 178.63735,581.42015 155.04948,600.99635 C 137.63114,615.45229 135.64796,613.78764 139.42448,587.881 z M 275,325 C 300.5174,289.16411 325,275.8559 325,297.82108 C 325,310.41881 270.8229,362.5 257.71819,362.5 C 252.53689,362.5 260.3137,345.625 275,325 z M 337.37399,170.57858 L 377.61823,153.65714 L 334.20869,126.82858 C 310.33344,112.07286 288.37385,100 285.40959,100 C 282.44532,100 282.31842,119.6875 285.12759,143.75 C 287.93675,167.8125 291.78644,187.5 293.68245,187.5 C 295.57846,187.5 315.23966,179.88535 337.37399,170.57858 z "
       id="path1897" />
  </g>
</svg>
