<?xml version="1.0" encoding="UTF-8" standalone="no"?>
<!-- Created with Inkscape (http://www.inkscape.org/) -->
<svg
   xmlns:dc="http://purl.org/dc/elements/1.1/"
   xmlns:cc="http://web.resource.org/cc/"
   xmlns:rdf="http://www.w3.org/1999/02/22-rdf-syntax-ns#"
   xmlns:svg="http://www.w3.org/2000/svg"
   xmlns="http://www.w3.org/2000/svg"
   xmlns:sodipodi="http://sodipodi.sourceforge.net/DTD/sodipodi-0.dtd"
   xmlns:inkscape="http://www.inkscape.org/namespaces/inkscape"
   width="1000"
   height="1000"
   id="svg2"
   inkscape:label="Pozadí"
   sodipodi:version="0.32"
   inkscape:version="0.44.1"
   sodipodi:docbase="F:\zzz-netestlé-zzz\colorsvgImages"
   sodipodi:docname="WHITE_QUEEN_L.svg">
  <defs
     id="defs3" />
  <sodipodi:namedview
     id="base"
     pagecolor="#ffffff"
     bordercolor="#666666"
     borderopacity="1.0"
     inkscape:pageopacity="0.0"
     inkscape:pageshadow="2"
     inkscape:zoom="0.777"
     inkscape:cx="500"
     inkscape:cy="479.10802"
     inkscape:document-units="px"
     inkscape:current-layer="layer1"
     inkscape:window-width="1280"
     inkscape:window-height="975"
     inkscape:window-x="-4"
     inkscape:window-y="-4" />
  <metadata
     id="metadata6">
    <rdf:RDF>
      <cc:Work
         rdf:about="">
        <dc:format>image/svg+xml</dc:format>
        <dc:type
           rdf:resource="http://purl.org/dc/dcmitype/StillImage" />
      </cc:Work>
    </rdf:RDF>
  </metadata>
  <g
     inkscape:label="Vrstva 1"
     inkscape:groupmode="layer"
     id="layer1">
    <rect
       style="opacity:1;fill:#d9c58e;fill-opacity:1;fill-rule:evenodd;stroke:none;stroke-width:11.19999981;stroke-linejoin:round;stroke-miterlimit:4;stroke-dasharray:none;stroke-dashoffset:0;stroke-opacity:1"
       id="rect1870"
       width="1000"
       height="1000"
       x="0"
       y="-2.1316282e-014" />
    <path
       style="fill:white;fill-rule:evenodd;stroke:none;stroke-width:1px;stroke-linecap:butt;stroke-linejoin:miter;stroke-opacity:1;fill-opacity:1"
       d="M 115.83012,257.40026 L 65.637066,227.79923 L 88.803089,171.17117 L 148.00515,184.04118 L 141.57014,288.28829 L 272.84427,537.96654 L 285.71428,191.76319 L 240.66924,145.43114 L 266.40926,96.525097 L 333.33333,108.10811 L 326.89833,217.50322 L 429.85843,523.80952 L 490.34749,164.73616 L 451.73745,90.09009 L 501.9305,51.480051 L 558.55856,84.942085 L 519.94852,168.59717 L 579.15058,521.23552 L 696.2677,199.4852 L 667.95367,127.41313 L 709.13771,91.377091 L 765.76577,117.11712 L 750.32175,169.88417 L 720.72072,205.92021 L 742.59974,544.40154 L 880.30888,259.97426 L 854.56885,202.0592 L 897.0399,163.44916 L 943.37194,200.7722 L 903.4749,284.42728 L 845.55985,592.02059 L 751.60875,745.17375 L 776.06178,854.56885 L 664.09266,886.74389 L 329.47233,885.45689 L 234.23423,848.13385 L 258.68726,734.87773 L 154.44015,572.71557 L 115.83012,257.40026 z "
       id="path1885"
       sodipodi:nodetypes="ccccccccccccccccccccccccccccccccccccccc" />
    <path
       style="fill:black"
       d="M 284.375,880.0011 C 219.36981,860.01224 218.79638,859.02632 238.79973,801.64466 C 256.89544,749.73528 247.37841,716.53242 194.58593,647.3922 C 154.1187,594.39387 149.57151,578.99159 130.32254,429.71811 C 113.807,301.64218 104.83308,265.73365 86.053908,252.5802 C 57.985691,232.92045 55.427319,196.43093 80.649509,175.49836 C 122.59191,140.68926 181.70753,191.37329 152.92343,237.46394 C 139.32749,259.23451 145.83871,279.28843 202.65504,390.63214 L 268.03085,518.75 L 277.37384,357.1526 C 286.17883,204.86051 285.29979,194.56267 262.10841,178.3188 C 215.07144,145.37283 243.38567,81.095585 301.16037,89.665451 C 342.41817,95.785324 358.61561,129.29511 338.49154,166.8973 C 323.6196,194.68578 327.5351,213.93834 376.02686,351.45913 L 430.16616,504.99611 L 460.15843,333.0718 C 487.76144,174.84332 488.55145,159.38035 470.07534,138.96449 C 433.6583,98.724111 453.47045,50 506.25,50 C 559.02955,50 578.8417,98.724111 542.42466,138.96449 C 523.94855,159.38035 524.73856,174.84332 552.34158,333.0718 L 582.33384,504.99611 L 636.47314,351.45913 C 684.9649,213.93834 688.8804,194.68578 674.00846,166.8973 C 653.88439,129.29511 670.08182,95.785324 711.33962,89.665451 C 769.11433,81.095585 797.42856,145.37283 750.39159,178.3188 C 727.20021,194.56267 726.32118,204.86051 735.12616,357.1526 L 744.46915,518.75 L 809.84496,390.63214 C 866.66129,279.28843 873.17251,259.23451 859.57658,237.46394 C 830.79247,191.37329 889.90809,140.68926 931.85049,175.49836 C 957.07268,196.43093 954.51431,232.92045 926.44609,252.5802 C 907.66691,265.73365 898.693,301.64218 882.17746,429.71811 C 862.92849,578.99159 858.3813,594.39387 817.91408,647.3922 C 765.12159,716.53242 755.60456,749.73528 773.70028,801.64466 C 793.77842,859.24088 793.43898,859.7678 722.73124,880.76574 C 637.38565,906.11066 367.75556,905.64034 284.375,880.0011 z M 706.25,873.53875 C 766.88619,856.7767 776.04706,844.23419 760.41201,799.38345 C 720.77879,685.69152 291.72121,685.69152 252.08799,799.38345 C 236.76599,843.33616 245.8101,857.17214 300.01949,872.71052 C 360.03215,889.91235 644.91791,890.49317 706.25,873.53875 z M 300,816.55319 C 393.10445,785.97339 557.59605,781.11846 668.04273,805.69051 C 721.10163,817.495 762.06104,829.60564 759.06363,832.60304 C 756.06623,835.60044 717.64445,829.57411 673.6819,819.21119 C 572.76263,795.42235 440.50629,795.13726 343.75,818.49999 C 248.58896,841.47754 227.03458,840.5184 300,816.55319 z M 375,717.32506 C 483.69197,690.552 627.8825,700.94318 725.8985,742.61276 C 748.6056,752.26625 783.41595,690.91595 765.4343,672.9343 C 747.51139,655.01139 586.12325,625.43409 506.25,625.43409 C 426.37675,625.43409 264.98861,655.01139 247.0657,672.9343 C 229.08405,690.91595 263.8944,752.26625 286.6015,742.61276 C 297.40817,738.01853 337.1875,726.63905 375,717.32506 z M 356.25,629.51357 C 459.56401,606.49448 620.5793,612.89903 723.70984,644.12968 L 791.16966,664.55829 L 819.45994,629.15414 C 854.69929,585.0535 840.40605,562.6804 776.59444,562.05706 C 751.655,561.81344 717.58811,554.04607 700.89025,544.79626 C 683.35314,535.08153 651.15664,530.57697 624.65961,534.13097 C 596.7214,537.87828 564.6685,532.88521 542.66985,521.35895 C 510.42804,504.46576 502.62658,504.46374 469.99114,521.34018 C 447.84416,532.79282 415.40299,537.8279 387.70041,534.1122 C 361.34168,530.57675 329.10874,535.10265 311.60975,544.79626 C 294.91189,554.04607 261.28125,561.81344 236.875,562.05706 C 172.12589,562.70337 158.17344,582.66032 191.22063,627.35904 C 210.95549,654.05186 225.05846,661.90279 243.49811,656.46115 C 257.38665,652.36257 308.125,640.23616 356.25,629.51357 z M 227.5,550 C 246.75,550 262.21166,545.78125 261.85926,540.625 C 260.62295,522.53583 126.27445,268.91158 125.64074,283.47051 C 124.94435,299.46954 146.0352,467.82635 157.2767,536.00315 C 162.45663,567.41811 167.86766,574.63234 178.37185,564.12815 C 186.14234,556.35766 208.25,550 227.5,550 z M 869.4295,435.38277 C 878.93263,364.35975 886.59779,297.8125 886.46321,287.5 C 886.23503,270.01443 752.04354,520.09984 750.64074,540.625 C 750.28834,545.78125 766.54302,550 786.76229,550 C 806.98155,550 827.23231,555.99924 831.76399,563.33164 C 846.14664,586.60326 851.7364,567.61494 869.4295,435.38277 z M 384.42703,521.6991 L 425.10405,527.85275 L 365.67703,356.95439 L 306.25,186.05601 L 298.13691,252.40301 C 293.67471,288.89385 287.74389,370.35664 284.95733,433.43143 L 279.89083,548.11286 L 311.82041,531.82915 C 329.38169,522.8731 362.05466,518.31457 384.42703,521.6991 z M 723.23345,369.81803 C 717.35905,274.15544 710.96229,194.29563 709.01844,192.35178 C 707.07459,190.40793 678.87816,265.20421 646.35973,358.56575 L 587.23529,528.31401 L 628.39445,521.6348 C 651.56792,517.87426 683.0254,522.16548 700.38297,531.45496 C 717.33912,540.52961 731.82025,547.00836 732.56326,545.85216 C 733.30628,544.69598 729.10786,465.48061 723.23345,369.81803 z M 541.60415,508.37234 C 574.76463,525.52029 576.81175,525.21648 570.86302,504.03016 C 567.34509,491.50108 551.6513,405.86885 535.98794,313.73634 C 520.32459,221.60383 506.08315,151.29133 504.34033,157.48634 C 502.5975,163.68135 489.52656,236.25 475.29381,318.75 C 461.06105,401.25 446.55965,481.67775 443.06846,497.47834 C 436.94266,525.20272 437.93048,525.57289 471.33494,508.07051 C 501.64389,492.19005 510.38365,492.22759 541.60415,508.37234 z M 143.75,212.5 C 143.75,189.5909 136.22828,180.18191 115.56912,177.24829 C 98.665625,174.84797 84.374294,181.10078 79.856755,192.87329 C 67.410898,225.30667 84.85529,252.1131 115.56912,247.75171 C 136.22828,244.81809 143.75,235.4091 143.75,212.5 z M 931.25,212.5 C 931.25,189.5909 923.72828,180.18191 903.06911,177.24829 C 886.16562,174.84797 871.87429,181.10078 867.35675,192.87329 C 854.9109,225.30667 872.35529,252.1131 903.06911,247.75171 C 923.72828,244.81809 931.25,235.4091 931.25,212.5 z M 331.25,137.5 C 331.25,112.68533 324.1565,105.43407 296.80392,102.28786 C 259.8606,98.038479 241.42236,122.11725 254.84158,157.08714 C 259.74316,169.86049 274.34062,175.29596 296.80392,172.71214 C 324.1565,169.56592 331.25,162.31468 331.25,137.5 z M 756.25,137.5 C 756.25,112.68533 749.1565,105.43407 721.80393,102.28786 C 684.8606,98.038479 666.42236,122.11725 679.84158,157.08714 C 684.74316,169.86049 699.34062,175.29596 721.80393,172.71214 C 749.1565,169.56592 756.25,162.31468 756.25,137.5 z M 543.75,100 C 543.75,75.18533 536.6565,67.934075 509.30393,64.787863 C 472.3606,60.538479 453.92236,84.617245 467.34158,119.58714 C 472.24316,132.36049 486.84062,137.79596 509.30393,135.21214 C 536.6565,132.06592 543.75,124.81467 543.75,100 z "
       id="path1994" />
  </g>
</svg>
